<?xml version="1.0" encoding="UTF-8"?>
<!DOCTYPE svg PUBLIC "-//W3C//DTD SVG 1.1//EN" "http://www.w3.org/Graphics/SVG/1.1/DTD/svg11.dtd">
<!-- Creator: CorelDRAW -->
<svg xmlns="http://www.w3.org/2000/svg" xml:space="preserve" width="170.669mm" height="100.64mm" version="1.1" style="shape-rendering:geometricPrecision; text-rendering:geometricPrecision; image-rendering:optimizeQuality; fill-rule:evenodd; clip-rule:evenodd"
viewBox="0 0 17094.63 10080.39"
 xmlns:xlink="http://www.w3.org/1999/xlink"
 xmlns:xodm="http://www.corel.com/coreldraw/odm/2003">
 <defs>
  <style type="text/css">
   <![CDATA[
    .fil0 {fill:#404547}
   ]]>
  </style>
 </defs>
 <g id="Слой_x0020_1">
  <metadata id="CorelCorpID_0Corel-Layer"/>
  <path class="fil0" d="M2033.7 9917.03c-86.1,0 -157.85,-29.27 -215.23,-87.75 -57.37,-58.48 -86.09,-129.68 -86.09,-213.57l0 -2.2c0,-83.89 28.9,-155.63 86.64,-215.22 57.75,-59.59 129.69,-89.41 215.78,-89.41 94.18,0 171.81,33.47 232.89,100.44l-82.78 89.4c-46.36,-48.57 -96.76,-72.85 -151.21,-72.85 -47.83,0 -87.75,18.04 -119.75,54.09 -32,36.05 -48.02,79.86 -48.02,131.33l0 2.21c0,52.95 16.4,97.51 49.12,133.55 32.73,36.04 74.5,54.09 125.27,54.09 53.71,0 104.12,-24.28 151.21,-72.85l80.57 79.47c-31.64,35.32 -66.06,62.37 -103.2,81.12 -37.14,18.74 -82.22,28.15 -135.2,28.15zm5538.38 -5950.38l2285.59 0 0 2641.93 -2285.59 0 0 -2641.93zm-5058.27 5937.14l0 -467.98 -187.62 0 0 -114.79 509.92 0 0 114.79 -187.63 0 0 467.98 -134.66 0zm428.25 176.6l0 -759.36 133.56 0 0 97.13c51.51,-72.85 117.36,-109.27 197.56,-109.27 73.59,0 137.25,27.42 190.95,82.22 53.7,54.81 80.57,128.95 80.57,222.4 0,91.98 -26.87,165.38 -80.57,220.19 -53.7,54.8 -117.36,82.23 -190.95,82.23 -80.2,0 -146.05,-34.22 -197.56,-102.65l0 267.1 -133.56 0zm300.22 -280.35c47.1,0 86.64,-17.3 118.65,-51.88 32.01,-34.59 48.01,-80.2 48.01,-136.86 0,-55.18 -16.2,-100.08 -48.56,-134.65 -32.36,-34.58 -71.75,-51.87 -118.1,-51.87 -46.36,0 -86.28,17.66 -119.75,52.98 -33.47,35.32 -50.21,80.57 -50.21,135.76 0,54.45 16.75,99.17 50.21,134.1 33.46,34.95 73.4,52.44 119.75,52.44zm716.32 116.99c-88.3,0 -161.89,-29.44 -220.75,-88.3 -58.86,-58.87 -88.29,-130.6 -88.29,-215.22 0,-84.62 29.79,-156.54 89.4,-215.78 59.61,-59.24 133.55,-88.84 221.85,-88.84 88.29,0 162.07,29.45 221.29,88.29 59.22,58.86 88.85,130.97 88.85,216.33 0,83.89 -29.81,155.44 -89.41,214.67 -59.6,59.23 -133.91,88.85 -222.94,88.85zm2.2 -115.89c52.98,0 95.67,-18.05 128.03,-54.09 32.35,-36.04 48.56,-80.57 48.56,-133.55 0,-52.24 -16.93,-96.6 -50.76,-133 -33.83,-36.41 -76.53,-54.64 -128.03,-54.64 -52.25,0 -94.57,18.05 -126.94,54.09 -32.35,36.04 -48.57,80.57 -48.57,133.55 0,51.5 16.95,95.67 50.78,132.45 33.83,36.77 76.15,55.19 126.93,55.19zm445.9 102.65l0 -582.77 130.24 0 0 390.71c122.15,-173.65 214.12,-303.89 275.93,-390.71l125.82 0 0 582.77 -129.14 0 0 -388.51 -277.04 388.51 -125.81 0zm824.47 0l0 -467.98 -187.62 0 0 -114.79 509.92 0 0 114.79 -187.63 0 0 467.98 -134.66 0zm695.35 13.24c-85.36,0 -156.55,-28.35 -213.57,-84.99 -57,-56.64 -85.54,-129.87 -85.54,-219.65 0,-84.61 26.85,-156.35 80.57,-215.22 53.72,-58.87 121.78,-88.29 204.19,-88.29 88.29,0 156.92,29.99 205.84,89.96 48.92,59.95 73.39,134.46 73.39,223.49 0,16.2 -0.73,28.71 -2.2,37.53l-428.25 0c7.36,46.36 26.14,82.61 56.29,108.72 30.15,26.11 67.33,39.18 111.48,39.18 57.39,0 110,-23.18 157.83,-69.54l78.37 69.54c-60.34,72.85 -139.81,109.27 -238.41,109.27zm-166.66 -345.46l299.11 0c-4.41,-44.89 -19.5,-81.69 -45.24,-110.38 -25.74,-28.68 -59.98,-43.04 -102.66,-43.04 -40.47,0 -74.33,14.17 -101.53,42.49 -27.21,28.32 -43.78,65.31 -49.67,110.93zm561.8 338.84c-21.34,0 -47.47,-2.58 -78.37,-7.73l9.94 -109.27c11.77,2.94 24.64,4.42 38.62,4.42 15.46,0 28.17,-2.22 38.08,-6.62 9.93,-4.4 20.24,-15.66 30.9,-33.66 10.65,-18.01 18.97,-43.61 24.84,-76.71 5.87,-33.08 10.67,-79.65 14.34,-139.62 3.68,-59.97 5.52,-133.37 5.52,-220.19l440.39 0 0 582.77 -133.55 0 0 -467.98 -182.12 0c0,83.14 -3.32,153.78 -9.94,211.91 -6.62,58.13 -15.27,104.14 -25.93,137.96 -10.66,33.83 -25.39,60.16 -44.15,78.92 -18.76,18.76 -37.71,31.08 -56.84,36.97 -19.13,5.89 -43.04,8.83 -71.74,8.83zm692.02 -6.62l0 -582.77 133.55 0 0 204.19 133.56 0c69.16,0 125.09,15.47 167.76,46.36 42.66,30.89 64.01,76.89 64.01,137.96 0,60.33 -19.88,107.81 -59.6,142.37 -39.72,34.57 -93.84,51.88 -162.24,51.88l-277.04 0zm133.55 -108.18l125.82 0c33.85,0 59.99,-7.36 78.37,-22.07 18.39,-14.7 27.59,-36.06 27.59,-64.01 0,-25.75 -9.4,-45.63 -28.15,-59.61 -18.75,-13.96 -45.46,-20.96 -80.02,-20.96l-123.62 0 0 166.65zm482.32 108.18l0 -582.77 133.56 0 0 236.19 257.17 0 0 -236.19 133.55 0 0 582.77 -133.55 0 0 -235.1 -257.17 0 0 235.1 -133.56 0zm1180.99 0l-132.45 0 0 -71.75c-47.09,55.92 -110.01,83.89 -188.74,83.89 -58.12,0 -107.25,-16.03 -147.35,-48.02 -40.08,-31.99 -60.15,-76.7 -60.15,-134.1 0,-62.54 21.71,-110.02 65.12,-142.38 43.41,-32.36 100.43,-48.57 171.08,-48.57 56.66,0 110.37,8.1 161.14,24.28l0 -11.03c0,-40.47 -12.32,-71.39 -36.97,-92.72 -24.65,-21.33 -60.16,-32 -106.51,-32 -52.98,0 -108.53,12.14 -166.66,36.43l-36.43 -107.06c72.12,-32.38 146.07,-48.57 221.86,-48.57 84.61,0 148.45,21.36 191.49,64.02 43.02,42.66 64.56,103.41 64.56,182.11l0 345.47zm-129.13 -210.82l0 -33.1c-39.74,-15.46 -84.26,-23.18 -133.56,-23.18 -41.94,0 -74.7,8.1 -98.23,24.28 -23.53,16.17 -35.32,39 -35.32,68.43 0,26.49 10.69,47.48 32,62.91 21.33,15.44 48.21,23.18 80.57,23.18 44.89,0 81.86,-11.41 110.93,-34.22 29.07,-22.81 43.6,-52.23 43.6,-88.3zm235.09 210.82l161.14 -218.53c-41.21,-12.51 -74.16,-33.67 -98.79,-63.47 -24.63,-29.78 -36.97,-66.78 -36.97,-110.92 0,-57.39 20.26,-103.4 60.71,-137.96 40.46,-34.57 96.76,-51.87 168.86,-51.87l292.48 0 0 582.77 -133.55 0 0 -196.47 -119.2 0 -137.96 196.47 -156.72 0zm273.72 -296.9l140.17 0 0 -177.71 -141.27 0c-35.3,0 -63.11,7.93 -83.34,23.74 -20.21,15.81 -30.35,37.34 -30.35,64.56 0,27.97 10.5,49.87 31.45,65.68 20.94,15.81 48.75,23.73 83.34,23.73zm772.59 296.9l0 -582.77 132.45 0 0 279.23 253.86 -279.23 156.72 0 -226.27 245.02 245.04 337.75 -157.84 0 -176.6 -240.61 -94.92 100.43 0 140.18 -132.45 0zm931.55 13.24c-88.3,0 -161.89,-29.44 -220.75,-88.3 -58.86,-58.87 -88.29,-130.6 -88.29,-215.22 0,-84.62 29.79,-156.54 89.4,-215.78 59.61,-59.24 133.55,-88.84 221.85,-88.84 88.29,0 162.07,29.45 221.29,88.29 59.22,58.86 88.85,130.97 88.85,216.33 0,83.89 -29.81,155.44 -89.41,214.67 -59.6,59.23 -133.91,88.85 -222.94,88.85zm2.2 -115.89c52.98,0 95.67,-18.05 128.03,-54.09 32.35,-36.04 48.56,-80.57 48.56,-133.55 0,-52.24 -16.93,-96.6 -50.76,-133 -33.83,-36.41 -76.52,-54.64 -128.03,-54.64 -52.25,0 -94.57,18.05 -126.94,54.09 -32.35,36.04 -48.57,80.57 -48.57,133.55 0,51.5 16.95,95.67 50.78,132.45 33.83,36.77 76.15,55.19 126.93,55.19zm445.9 102.65l0 -582.77 132.45 0 182.12 270.41 183.22 -270.41 132.45 0 0 582.77 -134.66 0 0 -388.51 -183.21 261.58 -182.12 -259.38 0 386.31 -130.24 0zm797.99 0l0 -582.77 519.85 0 0 582.77 -133.56 0 0 -467.98 -252.75 0 0 467.98 -133.55 0zm1176.56 0l-132.45 0 0 -71.75c-47.09,55.92 -110,83.89 -188.74,83.89 -58.12,0 -107.25,-16.03 -147.35,-48.02 -40.08,-31.99 -60.15,-76.7 -60.15,-134.1 0,-62.54 21.73,-110.02 65.13,-142.38 43.39,-32.35 100.43,-48.57 171.08,-48.57 56.65,0 110.36,8.1 161.14,24.28l0 -11.03c0,-40.47 -12.34,-71.4 -36.98,-92.72 -24.63,-21.32 -60.16,-32 -106.51,-32 -52.98,0 -108.53,12.14 -166.65,36.43l-36.43 -107.06c72.11,-32.38 146.06,-48.57 221.85,-48.57 84.62,0 148.46,21.36 191.49,64.02 43.02,42.66 64.56,103.41 64.56,182.11l0 345.47zm-129.13 -210.82l0 -33.1c-39.73,-15.46 -84.25,-23.18 -133.56,-23.18 -41.94,0 -74.69,8.11 -98.22,24.28 -23.53,16.18 -35.32,39 -35.32,68.43 0,26.49 10.67,47.47 32,62.91 21.33,15.45 48.2,23.18 80.57,23.18 44.88,0 81.87,-11.43 110.92,-34.22 29.05,-22.8 43.6,-52.23 43.6,-88.3zm288.07 210.82l0 -582.77 133.55 0 0 236.19 257.18 0 0 -236.19 133.54 0 0 582.77 -133.54 0 0 -235.1 -257.18 0 0 235.1 -133.55 0zm692.03 0l0 -582.77 130.24 0 0 390.71c122.15,-173.65 214.13,-303.89 275.93,-390.71l125.82 0 0 582.77 -129.13 0 0 -388.51 -277.04 388.51 -125.82 0zm646.78 0l161.14 -218.53c-41.21,-12.51 -74.14,-33.68 -98.78,-63.47 -24.63,-29.79 -36.98,-66.78 -36.98,-110.92 0,-57.39 20.26,-103.4 60.71,-137.96 40.46,-34.57 96.76,-51.87 168.86,-51.87l292.49 0 0 582.77 -133.56 0 0 -196.47 -119.19 0 -137.97 196.47 -156.72 0zm273.72 -296.9l140.17 0 0 -177.71 -141.27 0c-35.29,0 -63.11,7.93 -83.34,23.74 -20.21,15.81 -30.35,37.34 -30.35,64.56 0,27.97 10.49,49.86 31.45,65.68 20.96,15.82 48.75,23.73 83.34,23.73zm-15088.51 -998.83l0 -1353.97 373.84 0 0 549.33 464.42 -549.33 443.21 0 -510.67 582.21 528.02 771.76 -449.01 0 -339.14 -502.9 -136.83 152.8 0 350.1 -373.84 0zm1298.81 0l574.25 -1363.63 360.36 0 574.25 1363.63 -400.81 0 -98.29 -241.78 -520.29 0 -96.35 241.78 -393.12 0zm599.3 -533.85l302.54 0 -150.3 -384.91 -152.24 384.91zm1040.59 533.85l0 -1353.97 578.11 0c172.15,0 308.65,42.23 409.5,126.7 100.84,84.46 151.27,202.13 151.27,352.99 0,154.74 -53.32,274.67 -159.94,359.77 -106.63,85.1 -246.66,127.66 -420.08,127.66l-185 0 0 386.85 -373.86 0zm373.86 -680.86l177.28 0c66.81,0 119.15,-16.12 157.07,-48.35 37.89,-32.24 56.83,-76.08 56.83,-131.53 0,-58.02 -18.94,-102.2 -56.83,-132.5 -37.91,-30.3 -90.9,-45.45 -159,-45.45l-175.34 0 0 357.83zm923.04 680.86l0 -1353.97 373.84 0 0 549.33 464.42 -549.33 443.21 0 -510.66 582.21 528.01 771.76 -449.01 0 -339.15 -502.9 -136.82 152.8 0 350.1 -373.84 0zm1298.81 0l574.25 -1363.63 360.36 0 574.25 1363.63 -400.81 0 -98.28 -241.78 -520.3 0 -96.35 241.78 -393.12 0zm599.3 -533.85l302.55 0 -150.31 -384.91 -152.24 384.91zm1690 560.93c-195.27,0 -360.03,-66.73 -494.28,-200.2 -134.24,-133.47 -201.37,-301.42 -201.37,-503.88 0,-198.57 67.76,-365.56 203.3,-500.96 135.53,-135.4 304.78,-203.09 507.76,-203.09 240.24,0 429.09,95.41 566.55,286.26l-273.63 212.77c-83.51,-104.45 -182.43,-156.67 -296.77,-156.67 -93.77,0 -170.86,34.82 -231.24,104.45 -60.39,69.63 -90.57,155.38 -90.57,257.25 0,103.17 30.18,189.24 90.57,258.23 60.38,68.99 137.46,103.48 231.24,103.48 65.53,0 121.41,-13.86 167.65,-41.59 46.26,-27.73 91.86,-68.66 136.82,-122.82l281.35 201.16c-70.65,96.71 -152.88,171.83 -246.66,225.34 -93.78,53.52 -210.69,80.28 -350.72,80.28zm657.12 243.71l0 -599.61 119.47 0c48.82,-131.52 83.83,-268.86 105.03,-411.99 21.19,-143.13 31.79,-335.91 31.79,-578.34l0 -34.82 1027.1 0 0 1025.14 152.24 0 -42.4 599.61 -316.02 0 0 -270.79 -716.85 0 -25.05 270.79 -335.3 0zm510.66 -599.61l398.9 0 0 -696.32 -292.92 0 0 13.53c0,242.43 -35.32,470.02 -105.98,682.79zm2271 150.87c-139.39,136.68 -312.5,205.03 -519.32,205.03 -206.85,0 -379.31,-68.03 -517.41,-204.06 -138.1,-136.05 -207.16,-302.71 -207.16,-500.01 0,-196 69.7,-362.34 209.08,-499.03 139.39,-136.68 312.5,-205.02 519.33,-205.02 206.84,0 379.31,68.02 517.41,204.06 138.09,136.04 207.15,302.7 207.15,499.99 0,196.01 -69.69,362.35 -209.08,499.04zm-515.48 -133.46c101.49,0 184.03,-35.47 247.62,-106.39 63.58,-70.92 95.39,-157.32 95.39,-259.19 0,-100.57 -32.76,-186.64 -98.28,-258.22 -65.52,-71.56 -148.38,-107.34 -248.58,-107.34 -100.22,0 -182.11,35.46 -245.71,106.38 -63.58,70.93 -95.37,157.32 -95.37,259.18 0,100.58 32.43,186.66 97.31,258.23 64.88,71.57 147.41,107.35 247.62,107.35zm919.18 311.41l0 -1353.97 395.05 0 321.8 524.18 321.81 -524.18 395.04 0 0 1353.97 -371.91 0 0 -777.56 -344.94 529.98 -7.7 0 -343.01 -526.11 0 773.7 -366.14 0zm1564.75 0l574.25 -1363.63 360.36 0 574.24 1363.63 -400.81 0 -98.29 -241.78 -520.28 0 -96.35 241.78 -393.12 0zm599.3 -533.85l302.54 0 -150.3 -384.91 -152.24 384.91zm1505.01 560.93c-211.97,0 -394.4,-71.58 -547.28,-214.71l213.9 -251.45c115.62,98 224.82,147 327.59,147 61.66,0 110.17,-14.5 145.49,-43.51 35.34,-29.02 53.01,-68.67 53.01,-118.95 0,-47.72 -18.3,-85.76 -54.92,-114.13 -36.62,-28.37 -84.48,-42.56 -143.57,-42.56 -69.37,0 -141.31,22.57 -215.82,67.7l-221.62 -123.79 38.55 -686.65 901.84 0 0 309.48 -607.01 0 -11.57 205.03c68.08,-32.24 140.03,-48.36 215.83,-48.36 131.03,0 240.86,37.07 329.52,111.22 88.65,74.14 132.97,181.49 132.97,322.05 0,148.28 -51.06,265.63 -153.19,352.02 -102.14,86.4 -236.7,129.6 -403.72,129.6zm1239.07 0c-238.95,0 -430.37,-79.96 -574.25,-239.85l235.09 -235.97c100.21,103.16 207.48,154.73 321.81,154.73 52.68,0 94.75,-12.57 126.22,-37.71 31.47,-25.15 47.21,-59.65 47.21,-103.49 0,-43.84 -19.27,-78.01 -57.8,-102.51 -38.54,-24.51 -92.51,-36.76 -161.88,-36.76l-158.01 0 -53.96 -195.36 310.24 -280.46 -516.44 0 0 -303.68 975.07 0 0 268.87 -321.81 276.59c232.53,51.58 348.8,179.88 348.8,384.91 0,135.4 -48.5,244.36 -145.49,326.88 -96.99,82.53 -221.93,123.8 -374.81,123.8zm-8046.22 -8635.14c1488.48,787 2951.85,1606.53 4450.77,2422.31l-1058.75 559.79 -3392.03 -1846.11 -2540.01 1331.94 0 4152.07 -1523.72 0 0 -4408.34c1371.35,-746.35 2702.51,-1491.95 4063.75,-2211.67zm-8528.11 4641.38l4008.29 -2181.49 0 1135.99 -2484.56 1352.22 0 1671.9 -1523.72 0 0 -1978.62zm15190.41 -2057.14l1213.61 0 0 1198.95 690.6 440.35 0 2396.47 -1372.06 0 0 -2071.7 -1771.45 -1161.43 -1278.52 717.12 0 2516.01 -1230.92 0 0 -3003.4c852.53,-463.98 1649.78,-911.23 2509.44,-1365.74 0,0 1239.28,718.41 1239.28,718.41l0 -385.05zm-12806.1 2418.81l1238.64 0 0 926.79 -1238.64 0 0 -926.79z"/>
 </g>
</svg>
